#!OML:ASF E:/inclinewalkrobotboard/Project1/Captureday1/Session1/subject1.ASF
:FULLY-SPECIFIED
:DEGREES
63
root 0 0 0 -1.9282302809753418 13.938241642296955 12.467937309914122
lowerback -5.4159462446434645 -5.366462811363062 -8.081595018955616
upperback -8.522370503024803 -6.792082005849776 6.080508597353999
thorax -6.009566067406243 -2.1270102238003945 11.08557630598925
lowerneck -5.9364120605277915 -8.443586866554602 -7.108546614327449
upperneck 29.470909659717982 -10.93283815098344 2.592481991878333
head 10.978200033751705 -5.5302635240357 0.5899329911982345
rclavicle -8.961349634233561E-15 6.591857523888325E-15
rhumerus 150.60465305314008 10.429576900203756 -189.91945965240404
rradius 20.922039993825145
rwrist 75.72874337626203
rhand -16.17885028827843 9.598856808058713
rfingers 7.125019999999993
rthumb 10.01351696501192 -19.864100099632246
lclavicle 3.944435697783231E-15 7.24973222048647E-16
lhumerus 64.59194728069285 28.68381935638916 21.554669129009632
lradius 51.55148345033028
lwrist -18.550597547899358
lhand -10.255222579446963 10.068065706484623
lfingers 7.1250200000000135
lthumb 15.677557881348688 39.08353361065082
rfemur 162.84500640192795 -217.47948005728298 -185.1952255989089
rtibia 71.04537482262886
rfoot -47.35557823932614 -25.57042518596451
rtoes 50.029705219780226
lfemur -87.37256358021284 16.92982748340645 -62.82579548185476
ltibia 65.05638870040879
lfoot -2.820695515562676 38.41666946378403
ltoes 4.297031455083314
64
root 0 0 0 -0.38784152780729997 15.601664294946001 11.3124676452481
lowerback -6.039605567350514 -5.337882895480343 -7.748174267895445
upperback -8.85567889583652 -6.757725934276085 6.366783986975403
thorax -5.938725451274614 -2.164744732039276 11.215736654018414
lowerneck -5.735880524169989 -8.587519614144048 -7.320698675587305
upperneck 29.618891585268287 -11.111585761705644 2.592002703810577
head 11.026565647394978 -5.62140132199131 0.5975398566598311
rclavicle -8.191426023645957E-15 6.240272743559015E-15
rhumerus 152.41775223625197 10.02338974174139 -189.75278615877863
rradius 21.50421955602699
rwrist 74.2486966296937
rhand -16.1713028735782 9.41859322728018
rfingers 7.125019999999993
rthumb 10.020002213983652 -20.056487804883197
lclavicle 3.840415203587154E-15 -1.0264231768373458E-16
lhumerus 65.76447111954687 28.732224698087677 21.330164228770403
lradius 52.43265134706296
lwrist -18.09281206250641
lhand -9.414013852552504 9.74652721446216
lfingers 7.125020000000015
lthumb 16.482609471246324 38.64184585537729
rfemur 163.25965189829677 -217.70820616358313 -185.4756642354746
rtibia 71.1592200786894
rfoot -46.690072837270264 -25.79277082928726
rtoes 50.04694470194222
lfemur -87.40654645102111 17.238384524139068 -62.149244286578444
ltibia 65.3608622847222
lfoot -4.532771480651775 38.325872610431524
ltoes 4.970390328525865
65
root 0 0 0 2.4896662121086024 18.74629244045396 9.343122894476414
lowerback -7.087874359328261 -5.230187997402565 -7.251017596129249
upperback -9.439818789171403 -6.619329058799095 6.798373883120174
thorax -5.8436020781848015 -2.181724158273128 11.414678037288887
lowerneck -5.343510344041847 -8.772078554072733 -7.567759918631093
upperneck 30.013994942717442 -11.330257091397876 2.4450885701551526
head 11.141042235134712 -5.738550230537058 0.5613423481826479
rclavicle -7.279433521918911E-15 5.819086519892737E-15
rhumerus 154.83312684384455 9.433706566746313 -190.17404199631946
rradius 21.692499290778528
rwrist 73.32695473412055
rhand -16.204271591606286 9.125561590904576
rfingers 7.125019999999995
rthumb 9.986648699426821 -20.38437656224614
lclavicle 3.592056228202327E-15 -1.1242815466863266E-15
lhumerus 67.90058629866849 29.14103789410304 20.97056168188931
lradius 52.85465460429066
lwrist -17.65017405017745
lhand -8.600306642213805 9.66153625034773
lfingers 7.125020000000014
lthumb 17.26354985281243 38.457859130795775
rfemur 163.964341622904 -218.22960038167662 -186.15935775503374
rtibia 71.04396546158549
rfoot -46.14488776912805 -25.932549761567955
rtoes 50.42101885187898
lfemur -87.53166297961562 17.732008171052698 -61.110930648055344
ltibia 65.96871507057728
lfoot -6.990228151215696 38.134910675135885
ltoes 6.011195637789155
66
root 0 0 0 4.956555717855331 22.242648135529844 7.623043916906683
lowerback -7.888960470834331 -5.119079920713986 -6.81471486869849
upperback -9.899406051909562 -6.4694130594115595 7.172569265347912
thorax -5.762363669494892 -2.181661620311023 11.580683236009929
lowerneck -4.949415613829009 -8.932689990542832 -7.739137844614043
upperneck 30.46815268448384 -11.496241837615885 2.163241850812989
head 11.268429658649842 -5.838321897574447 0.47792867043150977
rclavicle -6.744285885468846E-15 5.562466538182132E-15
rhumerus 156.39765545204463 9.043247277727577 -190.59286034565477
rradius 21.66536934968452
rwrist 73.0961625495831
rhand -16.239034645463178 8.935410508291747
rfingers 7.125019999999996
rthumb 9.95139993281971 -20.60119356031084
lclavicle 3.46595293221498E-15 -1.7391081651202418E-15
lhumerus 69.35039953013579 29.391305667738074 20.626696290104263
lradius 52.976992273670376
lwrist -17.45195636802815
lhand -8.190072412249318 9.718254803392462
lfingers 7.1250200000000135
lthumb 17.658355288631963 38.46791206831509
rfemur 164.3865009541562 -218.60076203049908 -186.62494363666454
rtibia 70.84975825923749
rfoot -46.12237272330373 -25.823359340033807
rtoes 50.741068521859496
lfemur -87.65533953205593 18.103407995914875 -60.415042862931585
ltibia 66.53327326204223
lfoot -8.52562443476478 37.9615556056019
ltoes 6.683498603813167
